<svg width="0" height="0" class="hidden">
  <symbol xmlns="http://www.w3.org/2000/svg" viewBox="0 0 496 496" id="assistance">
    <path d="M248 458.633l-110.719-96.871A74.028 74.028 0 0 1 112 306.039C112 265.207 145.207 232 186.04 232h2.608c19.778 0 38.368 7.703 52.352 21.687l7 7 7-7C268.984 239.703 287.574 232 307.352 232h2.609C350.793 232 384 265.207 384 306.04a74.028 74.028 0 0 1-25.281 55.722zm0 0"
      fill="#02c021" data-original="#F0BC5E" data-old_color="#02c021"></path>
    <path d="M432 496H64V248H30.105C13.504 248 0 234.496 0 217.895a30.14 30.14 0 0 1 10.055-22.461l204.68-182.746C223.901 4.504 235.71 0 248 0s24.098 4.504 33.266 12.688l204.68 182.753A30.123 30.123 0 0 1 496 217.895C496 234.496 482.496 248 465.895 248H432zM80 480h336V232h49.895c7.777 0 14.105-6.328 14.105-14.105a14.12 14.12 0 0 0-4.71-10.52L270.61 24.625c-12.465-11.129-32.755-11.129-45.212 0L20.711 207.375A14.116 14.116 0 0 0 16 217.895C16 225.672 22.328 232 30.105 232H80zm0 0"
      data-original="#000000" data-old_color="#000000" fill="#252525"></path>
    <path d="M226.727 397.504l-68.383-59.832A42.056 42.056 0 0 1 144 306.039C144 282.855 162.855 264 186.04 264h2.608c1.391 0 2.778.07 4.145.2l-1.578 15.921a26.748 26.748 0 0 0-2.567-.121h-2.609C171.68 280 160 291.68 160 306.04a26.074 26.074 0 0 0 8.887 19.6l68.379 59.825zM192 88v80h112V88zm96 32h-32v-16h32zm-48-16v16h-32v-16zm-32 32h32v16h-32zm48 16v-16h32v16zm0 0"
      data-original="#000000" data-old_color="#000000" fill="#252525"></path>
  </symbol>
  <symbol xmlns="http://www.w3.org/2000/svg" viewBox="0 -40 496 496" id="car">
    <path d="M432 316.848V336h56v-56c0-8.84-7.16-16-16-16h-8l-29.313 43.969a16.038 16.038 0 0 0-2.687 8.879zm0 0" fill="#02c021" data-original="#F0BC5E" data-old_color="#02c021"></path>
    <path d="M168 360h136v16H168zm-8-32h152v16H160zm0 0" data-original="#000000" data-old_color="#000000" fill="#252525"></path>
    <path d="M472 256h-1.473c-3.312-9.29-12.113-16-22.527-16h-13l-4.465-3.902c-27.144-23.754-59.758-39.778-94.543-47.235V129.23l-22.199-3.703a150.847 150.847 0 0 0-12.664-30.582l13.078-18.312-54.84-54.84-18.312 13.086a151.135 151.135 0 0 0-30.582-12.672L206.777 0h-77.554l-3.703 22.191a150.95 150.95 0 0 0-30.583 12.672L76.625 21.777l-54.84 54.84L34.863 94.93A150.847 150.847 0 0 0 22.2 125.512L0 129.222v77.548l22.2 3.703a150.847 150.847 0 0 0 12.663 30.582l-13.078 18.312 13.887 13.89-17.176 4.04A23.94 23.94 0 0 0 0 300.672V352c0 13.23 10.77 24 24 24h48v-16H24c-4.406 0-8-3.586-8-8v-8h64v-16H16v-27.328a7.972 7.972 0 0 1 6.168-7.793l112.152-26.383c-4.097 9.488-6.32 19.77-6.32 30.238V320h16v-23.266A60.445 60.445 0 0 1 153.656 264H208c13.23 0 24-10.77 24-24 0-11.457-8.078-21.04-18.84-23.406C237.64 205.754 264.32 200 291.895 200c36.882 0 72.68 10.594 103.53 30.016A458.695 458.695 0 0 1 268.106 248H248v16h20.105c25.512 0 50.864-2.04 75.895-6.09V312h16v-57c17.496-3.45 34.809-7.922 51.887-13.344 2.73 2.137 5.504 4.192 8.12 6.489L429 256h19a8 8 0 0 1 7.734 5.969l-27.703 41.55A23.914 23.914 0 0 0 424 316.84V328h-32v16h88v8c0 4.414-3.594 8-8 8h-72v16h72c13.23 0 24-10.77 24-24v-72c0-13.23-10.77-24-24-24zm-256-16c0 4.414-3.594 8-8 8h-40.922c11.082-10.246 25.617-16 40.922-16 4.406 0 8 3.586 8 8zm54.45-54.922c-5.618.563-11.169 1.395-16.68 2.395 1.437-6.344 2.23-12.84 2.23-19.473 0-48.52-39.48-88-88-88-20.246 0-40.023 7.063-55.688 19.879l10.137 12.379C135.258 101.778 151.441 96 168 96c39.695 0 72 32.297 72 72 0 8.113-1.39 15.992-4.008 23.527-31.297 8.57-60.258 24.29-84.832 46.434C119.137 230.359 96 201.863 96 168c0-16.559 5.777-32.742 16.258-45.543L99.87 112.313C87.055 127.977 80 147.752 80 168c0 37.023 22.61 68.855 55.398 81.809l-23.574 5.543C81.88 236.09 64 203.742 64 168c0-57.344 46.656-104 104-104s104 46.656 104 104c0 5.742-.617 11.45-1.55 17.078zm49.55 1.02c-9.281-1.25-18.64-2.098-28.105-2.098-1.711 0-3.407.078-5.102.129.719-5.344 1.207-10.723 1.207-16.129 0-66.168-53.832-120-120-120S48 101.832 48 168c0 36.273 15.895 69.574 43.215 92.2l-37.223 8.76-11.312-11.312 11.222-15.703-2.68-4.496a134.845 134.845 0 0 1-14.894-35.976l-1.281-5.075L16 193.223V142.77l19.047-3.168 1.281-5.075a134.845 134.845 0 0 1 14.895-35.976l2.68-4.496L42.68 78.352 78.352 42.68l15.71 11.215 4.497-2.68a134.727 134.727 0 0 1 35.984-14.895l5.066-1.289L142.777 16h50.446l3.175 19.04 5.067 1.288a134.833 134.833 0 0 1 35.984 14.895l4.496 2.68 15.711-11.216 35.672 35.672-11.223 15.703 2.68 4.497a134.898 134.898 0 0 1 14.895 35.976l1.28 5.074 19.04 3.168zM480 328h-40v-11.16c0-1.582.465-3.121 1.344-4.442L468.28 272H472c4.406 0 8 3.586 8 8zm0 0"
      data-original="#000000" data-old_color="#000000" fill="#252525"></path>
    <path d="M392 160h72v16h-72zm-32-32h72v16h-72zm-32-32h72v16h-72zm-48 184h32v16h-32zm0 0" data-original="#000000" data-old_color="#000000" fill="#252525"></path>
    <path d="M352 416c-30.879 0-56-25.129-56-56s25.121-56 56-56 56 25.129 56 56-25.121 56-56 56zm-232 0c-30.879 0-56-25.129-56-56s25.121-56 56-56 56 25.129 56 56-25.121 56-56 56zm0 0" fill="#02c021" data-original="#F0BC5E" data-old_color="#02c021"></path>
    <path d="M352 384c-13.23 0-24-10.77-24-24s10.77-24 24-24 24 10.77 24 24-10.77 24-24 24zm0-32c-4.406 0-8 3.586-8 8s3.594 8 8 8 8-3.586 8-8-3.594-8-8-8zm-232 32c-13.23 0-24-10.77-24-24s10.77-24 24-24 24 10.77 24 24-10.77 24-24 24zm0-32c-4.406 0-8 3.586-8 8s3.594 8 8 8 8-3.586 8-8-3.594-8-8-8zm360-192h16v16h-16zm-32-32h16v16h-16zm-32-32h16v16h-16zm0 0"
      data-original="#000000" data-old_color="#000000" fill="#252525"></path>
  </symbol>
  <symbol xmlns="http://www.w3.org/2000/svg" viewBox="0 0 290.478 290.478" id="creative">
    <path d="M188.096 233.333h-85.714v-12.752c0-13.229-5.205-26.495-14.652-37.362a75.923 75.923 0 0 1-18.681-50.343c.238-39.876 32.8-73.814 72.586-75.652 21.086-.948 41.019 6.481 56.214 20.995 15.205 14.524 23.581 34.095 23.581 55.114a75.913 75.913 0 0 1-19.286 50.581c-9.057 10.157-14.048 23.167-14.048 36.633v12.786z"
      data-original="#F9BA48" data-old_color="#02c021" fill="#02c021"></path>
    <path d="M278.572 161.905v-57.143h-22.681A113.41 113.41 0 0 0 243.677 75.3l16.043-16.048-40.4-40.4-16.048 16.043a113.237 113.237 0 0 0-29.462-12.214V0h-57.143v22.681a113.41 113.41 0 0 0-29.462 12.214L71.158 18.852l-40.4 40.4L46.801 75.3a113.237 113.237 0 0 0-12.214 29.462H11.906v57.143h22.681a113.41 113.41 0 0 0 12.214 29.462l-16.043 16.048 40.4 40.4 16.057-16.052c1.876 1.086 3.9 2.152 6.01 3.214a14.288 14.288 0 0 0-.367 3.119c0 5.071 2.676 9.51 6.671 12.043-1.181 2.081-1.91 4.448-1.91 7.005 0 5.071 2.676 9.51 6.671 12.043-1.181 2.081-1.91 4.448-1.91 7.005 0 7.876 6.41 14.286 14.286 14.286h57.143c7.876 0 14.286-6.41 14.286-14.286 0-2.557-.729-4.924-1.91-7.005 3.995-2.533 6.671-6.971 6.671-12.043 0-2.557-.729-4.924-1.91-7.005 3.995-2.533 6.671-6.971 6.671-12.043a14.37 14.37 0 0 0-.367-3.124c2.105-1.057 4.133-2.124 6.01-3.214l16.057 16.052 40.4-40.4-16.043-16.048a113.065 113.065 0 0 0 12.214-29.462h22.681v.005h.003zm-171.428 80.952c-2.629 0-4.762-2.133-4.762-4.762s2.133-4.762 4.762-4.762h76.19c2.629 0 4.762 2.133 4.762 4.762s-2.133 4.762-4.762 4.762h-76.19zm23.809-58.938a23.07 23.07 0 0 0 8.929 1.795h.595V200h9.524v-14.286h.595c3.162 0 6.176-.643 8.929-1.795v39.89h-28.571v-39.89h-.001zm52.381 73.224a4.763 4.763 0 0 1-4.762 4.762h-66.667c-2.629 0-4.762-2.133-4.762-4.762s2.133-4.762 4.762-4.762h66.667a4.763 4.763 0 0 1 4.762 4.762zm-9.523 23.809h-57.143c-2.629 0-4.762-2.133-4.762-4.762s2.133-4.762 4.762-4.762h57.143a4.763 4.763 0 0 1 4.762 4.762 4.765 4.765 0 0 1-4.762 4.762zm73.676-124.842a103.845 103.845 0 0 1-13.848 33.41l-2.052 3.224 14.667 14.671-26.933 26.933-14.671-14.667-3.224 2.052c-2.767 1.767-5.924 3.457-9.348 5.148-2.429-1.895-5.433-3.071-8.743-3.071h-14.286v-47.376c2.948-3.89 4.762-8.681 4.762-13.933v-1.19c0-12.8-10.414-23.214-23.214-23.214h-10.714c-7.548 0-13.69-6.143-13.69-13.69v-1.19c0-7.548 6.143-13.69 13.69-13.69h10.714c7.548 0 13.69 6.143 13.69 13.69v.595h9.524v-.595c0-12.8-10.414-23.214-23.214-23.214h-.596V85.714h-9.524V100h-.595c-12.8 0-23.214 10.414-23.214 23.214v1.19c0 12.8 10.414 23.214 23.214 23.214h10.714c7.548 0 13.69 6.143 13.69 13.69v1.19c0 7.548-6.143 13.69-13.69 13.69h-10.714c-7.548 0-13.69-4.762-13.69-14.286h-9.524c0 4.762 1.814 10.633 4.762 14.529v47.376h-14.286c-3.31 0-6.314 1.176-8.743 3.071-3.424-1.69-6.581-3.381-9.348-5.148l-3.224-2.052-14.671 14.667-26.933-26.933 14.667-14.671-2.052-3.224a103.788 103.788 0 0 1-13.848-33.41l-.829-3.729H21.43v-38.095h20.733l.829-3.729a103.845 103.845 0 0 1 13.848-33.41l2.052-3.224-14.667-14.668 26.933-26.933 14.671 14.667 3.224-2.052a103.788 103.788 0 0 1 33.41-13.848l3.729-.829V9.524h38.095v20.733l3.729.829a103.845 103.845 0 0 1 33.41 13.848l3.224 2.052 14.671-14.667 26.933 26.933-14.667 14.671 2.052 3.224a103.788 103.788 0 0 1 13.848 33.41l.829 3.729h20.733v38.095h-20.733l-.829 3.729z"
      data-original="#333333" data-old_color="#333333" fill="#252525"></path>
  </symbol>
  <symbol xmlns="http://www.w3.org/2000/svg" viewBox="0 -8 496 496" id="maintenance">
    <path d="M379.887 248H296v32l88 16-3.793-47.055c-.11-.312-.2-.632-.32-.945zM96 440c-30.879 0-56-25.121-56-56s25.121-56 56-56 56 25.121 56 56-25.121 56-56 56zm0 0" fill="#02c021" data-original="#F0BC5E" data-old_color="#02c021"></path>
    <path d="M96 288c-52.938 0-96 43.063-96 96s43.063 96 96 96 96-43.063 96-96-43.063-96-96-96zm46.672 160.84l-7.742-13.414-13.86 8 7.762 13.445c-7.719 3.496-16.055 5.848-24.832 6.723V448H88v15.594c-8.785-.875-17.113-3.235-24.832-6.723l7.762-13.445-13.86-8-7.742 13.414a80.502 80.502 0 0 1-18.168-18.168l13.414-7.742-8-13.86-13.445 7.762c-3.488-7.719-5.848-16.047-6.723-24.832H32v-16H16.406c.875-8.785 3.235-17.113 6.723-24.832l13.445 7.762 8-13.86-13.414-7.742a80.502 80.502 0 0 1 18.168-18.168l7.742 13.414 13.86-8-7.762-13.445c7.719-3.496 16.055-5.848 24.832-6.723V320h16v-15.594c8.785.875 17.121 3.235 24.832 6.723l-7.762 13.445 13.86 8 7.742-13.414a80.502 80.502 0 0 1 18.168 18.168l-13.414 7.742 8 13.86 13.445-7.762c3.496 7.719 5.848 16.055 6.723 24.832H160v16h15.594c-.875 8.785-3.235 17.113-6.723 24.832l-13.445-7.762-8 13.86 13.414 7.742a80.502 80.502 0 0 1-18.168 18.168zm0 0"
      data-original="#000000" data-old_color="#000000" fill="#252525"></path>
    <path d="M96 344c-22.055 0-40 17.945-40 40s17.945 40 40 40 40-17.945 40-40-17.945-40-40-40zm0 64c-13.23 0-24-10.77-24-24s10.77-24 24-24 24 10.77 24 24-10.77 24-24 24zm0 0" data-original="#000000" data-old_color="#000000" fill="#252525"></path>
    <path d="M88 376h16v16H88zm406.895-142.305l-15.208-76.039c-4.128-20.664-19.382-36.761-38.703-42.879C450.207 106.023 456 93.687 456 80V48c0-26.473-21.527-48-48-48s-48 21.527-48 48h-24v16h24v16c0 20.71 13.207 38.344 31.625 45.063l-72.457 72.464-73.16-11.703-27.863-62.695 39.183-63.297C274.313 32.382 303.727 16 336 16V0c-37.855 0-72.352 19.215-92.281 51.406l-69.52 112.297L56.016 51.734C42.199 38.641 26.039 32 8 32H0v290.809l13.863-14.954C35 285.07 64.938 272 96 272c61.762 0 112 50.238 112 112v24h174.238l-5.133 25.688a1.903 1.903 0 0 1-1.007 1.32l-22.22 11.113c-6.093 3.047-9.878 9.176-9.878 15.992 0 9.864 8.023 17.887 17.887 17.887H480c8.824 0 16-7.176 16-16V244.832a56.26 56.26 0 0 0-1.105-11.137zM395.359 424l3.528-17.625c5.37-2.598 9.113-8.094 9.113-14.613l-2.434-79.946c0-9.527-5.46-17.816-13.566-21.664v-18.351c8.953-.29 17.84-1.047 26.633-2.313C427.473 312.984 432 357.406 432 401.762V424zm39.032-157.32a242.045 242.045 0 0 0 44.882-14.239l.727-.304V424h-32v-22.238c0-45.297-4.617-90.664-13.61-135.082zM464 160.8l14.879 74.407-5.91 2.535c-26.281 11.266-54.016 17.297-82.512 18.098a71.655 71.655 0 0 0-13.547-29.434l62.121-62.125c5.785-5.785 8.969-13.465 8.969-21.656 0-2.527-.39-4.945-.977-7.297 8.504 5.863 14.84 14.785 16.977 25.473zm-88 109.766v15.84l-72-13.094V256h70.105A56.585 56.585 0 0 1 376 270.566zm56-127.941a14.72 14.72 0 0 1-4.29 10.344l-61.925 61.933c-7.847-6.437-17.144-11.254-27.433-13.941l68.671-68.68A14.554 14.554 0 0 1 417.367 128c8.074 0 14.633 6.559 14.633 14.625zM408 16c17.648 0 32 14.352 32 32h-64c0-17.648 14.352-32 32-32zm-32 64V64h64v16c0 17.648-14.352 32-32 32s-32-14.352-32-32zm-168.047 59.586L227.16 182.8l-39.457-6.313-1.64-1.55zM45.008 63.344L163.922 176h-25.258l-29.406-22.062-78.227-78.22c-4.289-4.284-9.406-7.445-15.031-9.413V48.602c10.656 1.62 20.383 6.566 29.008 14.742zM32 164c0 1.367.215 2.68.406 4H16V84.055c1.313.875 2.574 1.84 3.71 2.976L68.688 136H60c-15.441 0-28 12.559-28 28zm28-12h24.688l13.656 13.656L112.078 176H60c-6.617 0-12-5.383-12-12s5.383-12 12-12zM16 284.098V184h24.465c5.055 4.938 11.933 8 19.535 8h67.809c-.871 22.48-5.465 44.434-13.633 65.441C108.223 256.594 102.184 256 96 256c-29.16 0-57.441 10.07-80 28.098zm114.047-23.356A217.501 217.501 0 0 0 143.809 192h39.558l145.48 23.273c16.223 2.59 29.801 11.84 38.16 24.727H288v46.68l94.785 17.222c3.926.61 6.781 3.93 6.79 8.153l.968 31.945H217.512c-13.336-40.39-46.246-71.855-87.465-83.258zM221.664 360h169.36l.976 32H224v-8c0-8.207-.848-16.215-2.336-24zM360 462.113c0-.722.398-1.37 1.04-1.687l22.218-11.113c3.957-1.985 6.902-5.305 8.512-9.313h30.335l-12.234 6.121c-6.086 3.047-9.871 9.176-9.871 15.992V464h-38.113a1.89 1.89 0 0 1-1.887-1.887zM416 464v-1.887c0-.722.398-1.37 1.04-1.687l21.081-10.54c4.176-2.085 7.145-5.679 8.68-9.878H480v24h-64zm0 0"
      data-original="#000000" data-old_color="#000000" fill="#252525"></path>
  </symbol>
  <symbol xmlns="http://www.w3.org/2000/svg" viewBox="0 0 512 512" id="maps-and-flags">
    <path d="M256 0C153.755 0 70.573 83.182 70.573 185.426c0 126.888 165.939 313.167 173.004 321.035 6.636 7.391 18.222 7.378 24.846 0 7.065-7.868 173.004-194.147 173.004-321.035C441.425 83.182 358.244 0 256 0zm0 278.719c-51.442 0-93.292-41.851-93.292-93.293S204.559 92.134 256 92.134s93.291 41.851 93.291 93.293-41.85 93.292-93.291 93.292z"></path>
  </symbol>
  <symbol xmlns="http://www.w3.org/2000/svg" viewBox="0 0 79.536 79.536" id="opened-email-envelope">
    <path d="M39.773 1.31L0 31.004v47.222h79.536V31.004L39.773 1.31zM28.77 22.499c1.167-2.133 2.775-3.739 4.815-4.805 2.035-1.075 4.357-1.616 6.983-1.616 2.214 0 4.191.435 5.921 1.292 1.729.87 3.045 2.094 3.967 3.687a10.451 10.451 0 0 1 1.367 5.217c0 2.247-.694 4.279-2.082 6.097-1.74 2.292-3.961 3.436-6.68 3.436-.732 0-1.279-.122-1.654-.38-.365-.262-.621-.632-.743-1.129-1.022 1.012-2.231 1.52-3.589 1.52-1.465 0-2.679-.507-3.643-1.509-.966-1.012-1.447-2.361-1.447-4.031 0-2.084.578-3.966 1.743-5.672 1.416-2.084 3.218-3.13 5.424-3.13 1.571 0 2.731.601 3.475 1.805l.331-1.468h3.5l-1.998 9.479c-.125.606-.187.986-.187 1.163 0 .228.052.38.149.497a.468.468 0 0 0 .357.165c.436 0 .979-.248 1.646-.769.901-.663 1.627-1.574 2.181-2.695.554-1.129.839-2.299.839-3.508 0-2.165-.782-3.977-2.352-5.445-1.573-1.45-3.77-2.185-6.578-2.185-2.393 0-4.417.487-6.077 1.468-1.66.966-2.913 2.343-3.765 4.114a12.7 12.7 0 0 0-1.258 5.52c0 1.856.479 3.552 1.411 5.074.945 1.533 2.26 2.641 3.956 3.345 1.696.697 3.643 1.046 5.828 1.046 2.097 0 3.909-.293 5.432-.881 1.522-.587 2.739-1.457 3.666-2.641h2.807c-.88 1.792-2.227 3.192-4.049 4.215-2.092 1.163-4.64 1.74-7.644 1.74-2.918 0-5.426-.487-7.542-1.468-2.121-.986-3.689-2.434-4.73-4.35-1.028-1.918-1.535-4.008-1.535-6.268.002-2.477.58-4.789 1.755-6.93zM2.804 31.941l29.344 19.68L2.804 74.333V31.941zm2.229 43.903l34.74-26.885 34.729 26.885H5.033zm71.696-1.511L47.391 51.621l29.339-19.68v42.392zM41.205 24.661c.466.531.699 1.295.699 2.292 0 .891-.174 1.856-.513 2.879-.334 1.036-.743 1.826-1.209 2.361-.318.375-.658.652-.992.826a2.8 2.8 0 0 1-1.41.37c-.674.006-1.23-.264-1.691-.794-.45-.531-.673-1.346-.673-2.465 0-.839.158-1.805.487-2.889.329-1.088.81-1.916 1.453-2.509.647-.588 1.346-.881 2.1-.881.706.005 1.293.274 1.749.81z"
      fill="#010002"></path>
  </symbol>
  <symbol xmlns="http://www.w3.org/2000/svg" viewBox="0 0 295.239 295.239" id="project">
    <path data-original="#F9BA48" data-old_color="#02c021" fill="#02c021" d="M204.762.001H42.857v295.238h209.524V52.382z"></path>
    <path data-original="#333333" data-old_color="#333333" fill="#252525" d="M252.381 52.382h-47.619V.001h-9.524v61.905h57.143zm19.048 47.619H108.081l-35.714 23.81 35.714 23.81h163.348c13.129 0 23.81-10.681 23.81-23.81s-10.682-23.81-23.81-23.81zm-166.667 13.657v20.3l-15.224-10.147 15.224-10.153zm157.143 24.438H114.286v-9.524h133.333v-9.524H114.286v-9.524h147.619v28.572zm9.524 0v-28.571c7.876 0 14.286 6.41 14.286 14.286s-6.41 14.285-14.286 14.285zM0 247.62h228.571v-66.667H0v66.667zm9.524-57.143h9.524v14.286h9.524v-14.286h9.524v14.286h9.524v-14.286h9.524v23.81h9.524v-23.81h9.524v14.286h9.524v-14.286h9.524v14.286h9.524v-14.286h9.524v23.81h9.524v-23.81h9.524v14.286h9.524v-14.286h9.524v14.286h9.524v-14.286h9.524v23.81h9.524v-23.81h38.095v47.62H9.524v-47.62z"></path>
    <path d="M204.762 200.001c-7.876 0-14.286 6.41-14.286 14.286 0 7.876 6.41 14.286 14.286 14.286s14.286-6.41 14.286-14.286c0-7.876-6.41-14.286-14.286-14.286zm0 19.048c-2.624 0-4.762-2.133-4.762-4.762s2.138-4.762 4.762-4.762 4.762 2.133 4.762 4.762a4.767 4.767 0 0 1-4.762 4.762zM66.667 23.811h114.286v9.524H66.667zm0 23.809h114.286v9.524H66.667zm0 23.81h114.286v9.524H66.667z"
      data-original="#333333" data-old_color="#333333" fill="#252525"></path>
  </symbol>
  <symbol xmlns="http://www.w3.org/2000/svg" viewBox="0 0 496 496" id="service">
    <path d="M296 456h104v16H296zm-136-56c0-8.824-7.176-16-16-16h-32V184H96v200H64V184H48v200H16c-8.824 0-16 7.176-16 16v32c0 2.93.848 5.64 2.223 8C.848 442.36 0 445.07 0 448v32c0 8.824 7.176 16 16 16h128c8.824 0 16-7.176 16-16v-32c0-2.93-.848-5.64-2.223-8 1.375-2.36 2.223-5.07 2.223-8zm-16 32h-17.047l10.664-16-10.664-16H144zm-25.617 32l-10.664 16H86.953l10.664-16-10.664-16h20.766zm-10.664-64l10.664 16-10.664 16H86.953l10.664-16-10.664-16zm-29.336 16l-10.664 16H46.953l10.664-16-10.664-16H67.72zm-10.664 32l10.664 16-10.664 16H46.953l10.664-16-10.664-16zM16 400h11.719l10.664 16-10.664 16H16zm0 48h11.719l10.664 16-10.664 16H16zm110.953 32l10.664-16-10.664-16H144l.016 32zm0 0"
      data-original="#000000" data-old_color="#000000" fill="#252525"></path>
    <path d="M128 192H32v-48h96zm0 0" fill="#02c021" data-original="#F0BC5E" data-old_color="#02c021"></path>
    <path d="M416 352H308.687L272 388.688v10.015a163.66 163.66 0 0 0 8.414 51.832l15.172-5.062c-4.899-14.703-7.402-30-7.54-45.473H414.45c-2.008 14.336-6.008 28.426-12.168 41.473l14.473 6.832C426.727 427.152 432 403.609 432 380.223V368c0-8.824-7.176-16-16-16zm-116.688 32l16-16H416v12.223c0 1.257-.176 2.511-.207 3.777zm0 0"
      data-original="#000000" data-old_color="#000000" fill="#252525"></path>
    <path d="M304 416h32v16h-32zm0 0" data-original="#000000" data-old_color="#000000" fill="#252525"></path>
    <path d="M496 144V32c0-8.824-7.176-16-16-16h-64v.152C402.61 6.062 386.016 0 368 0c-22.32 0-42.504 9.207-57.031 24h-75.656l-24-24h-45.739l-24 16H16C7.176 16 0 23.176 0 32v112c0 8.824 7.176 16 16 16h144v32h16v184h16V192h240v128H302.96a24.078 24.078 0 0 0-17.554 7.64l-40.047 42.962a7.988 7.988 0 0 1-3.886 2.293l-47.297 11.824A23.967 23.967 0 0 0 176 408v40c0 13.23 10.77 24 24 24h48v-16h-48c-4.414 0-8-3.586-8-8v-24.055c17.2-.136 34.191-2.914 50.527-8.36l-5.062-15.17c-14.703 4.897-29.992 7.401-45.457 7.538a8.001 8.001 0 0 1 6.047-7.715l47.289-11.824a23.796 23.796 0 0 0 11.734-6.918l40.043-42.953a8.001 8.001 0 0 1 5.84-2.543H427.8c13.009 18.687 20.2 41.223 20.2 64v8h32v16h-24v16h24v8c0 4.414-3.586 8-8 8h-24v16h24c13.23 0 24-10.77 24-24v-62.191c0-6.106-2.29-11.914-6.45-16.36L480 359.191V160c8.824 0 16-7.176 16-16zm-16 0h-64.207c15.422-11.543 26.605-28.457 30.59-48H480zm-97.473-35.648a31.872 31.872 0 0 0 9.29-7.184l8.953 18.09 18.566-1.203c-9.48 12.754-23.55 21.875-39.785 24.84L369.617 128l13.04-19.559zM480 32v48h-32c0-18.016-6.063-34.61-16.152-48zm-53.336 22.496A63.578 63.578 0 0 1 432 80c0 7.527-1.375 14.727-3.777 21.45l-17.848 1.152-10.422-21.082-.113.054c.023-.527.16-1.031.16-1.574 0-3.527-.71-6.863-1.77-10.04l20.145 1.306zm-51.426-38.055c16.547 1.872 31.176 10.079 41.45 22.125l-7.918 16.036-23.473-1.512-.008.062c-3.25-2.105-6.883-3.672-10.793-4.48L385.617 32zM384 80c0 8.824-7.176 16-16 16s-16-7.176-16-16 7.176-16 16-16 16 7.176 16 16zm-23.238 63.559c-16.547-1.871-31.176-10.079-41.45-22.125l7.918-16.036 23.473 1.512.008-.062c3.25 2.105 6.883 3.672 10.793 4.48L350.383 128zm-4.313-126.461L366.383 32l-13.04 19.559.13.09a31.872 31.872 0 0 0-9.29 7.183l-8.953-18.09-18.566 1.203c9.488-12.761 23.55-21.875 39.785-24.847zM307.777 58.55l17.848-1.153 10.422 21.082.113-.054c-.023.527-.16 1.031-.16 1.574 0 3.527.71 6.863 1.77 10.04l-20.145-1.306-8.29 16.77A63.578 63.578 0 0 1 304 80c0-7.527 1.375-14.727 3.777-21.45zM152 28.28L170.426 16h34.261l24 24h70.137c-5.578 9.602-9.265 20.426-10.418 32h-59.719l-24 24h-34.261L152 83.719V80h40V32h-40zM16 144V96h32V80H16V32h120v16h40v16h-40v16H64v16h77.574l24 16h45.738l24-24h53.094c2.29 22.887 14.313 42.902 31.801 56zm160 32v-16h256v16zm287.742 216c-.742-11.727-3.183-23.305-7.062-34.367l21.183 22.726a7.973 7.973 0 0 1 2.137 5.45V392zm-13.14-64.352c-.793-.847-1.707-1.55-2.602-2.273V160h16v182.023zm0 0"
      data-original="#000000" data-old_color="#000000" fill="#252525"></path>
    <path d="M248 216h144v80H248zm0 0" fill="#02c021" data-original="#F0BC5E" data-old_color="#02c021"></path>
    <path d="M328 208h-88v96h160v-96zm-72 16h56v64h-56zm128 64h-56v-64h56zM272 496c-17.648 0-32-14.352-32-32s14.352-32 32-32 32 14.352 32 32-14.352 32-32 32zm152 0c-17.648 0-32-14.352-32-32s14.352-32 32-32 32 14.352 32 32-14.352 32-32 32zm0 0"
      data-original="#000000" data-old_color="#000000" fill="#252525"></path>
  </symbol>
  <symbol xmlns="http://www.w3.org/2000/svg" viewBox="0 0 35 35" id="smartphone-call">
    <path d="M25.302 0H9.698a2.37 2.37 0 0 0-2.364 2.364v30.271A2.371 2.371 0 0 0 9.698 35h15.604a2.37 2.37 0 0 0 2.364-2.364V2.364A2.37 2.37 0 0 0 25.302 0zM15.004 1.704h4.992a.286.286 0 0 1 0 .573h-4.992a.286.286 0 1 1 0-.573zM17.5 33.818a1.182 1.182 0 1 1 0-2.364 1.182 1.182 0 0 1 0 2.364zm8.521-3.193H8.979V3.749h17.042v26.876z"></path>
  </symbol>
  <symbol xmlns="http://www.w3.org/2000/svg" viewBox="0 0 491.541 491.541" id="square-measument">
    <path d="M350.373 116.048H24.445C10.942 116.048 0 126.988 0 140.492V466.42c0 13.503 10.942 24.445 24.445 24.445h325.928c13.503 0 24.444-10.942 24.444-24.445V140.492c0-13.504-10.941-24.444-24.444-24.444zm-24.445 325.927H48.889V164.936h277.039v277.039zm160.767-30.062h-26.513V126.63h26.513a4.835 4.835 0 0 0 4.472-2.991 4.828 4.828 0 0 0-1.05-5.283l-42.802-42.802a4.849 4.849 0 0 0-6.858 0l-42.803 42.802a4.828 4.828 0 0 0-1.05 5.283 4.838 4.838 0 0 0 4.473 2.991h26.513v285.283h-26.513a4.836 4.836 0 0 0-4.473 2.991 4.833 4.833 0 0 0 1.05 5.285l42.803 42.802a4.849 4.849 0 0 0 6.858 0l42.802-42.802a4.827 4.827 0 0 0 1.05-5.285 4.833 4.833 0 0 0-4.472-2.991zM70.676 94.563a4.83 4.83 0 0 0 5.284 1.05 4.833 4.833 0 0 0 2.992-4.472V64.628h285.283v26.513a4.833 4.833 0 0 0 2.991 4.472 4.83 4.83 0 0 0 5.284-1.05l42.802-42.802a4.851 4.851 0 0 0 0-6.86L372.51 2.1a4.828 4.828 0 0 0-5.284-1.051 4.834 4.834 0 0 0-2.991 4.472v26.515H78.952V5.521a4.834 4.834 0 0 0-2.992-4.472A4.828 4.828 0 0 0 70.676 2.1L27.875 44.901a4.851 4.851 0 0 0 0 6.86l42.801 42.802z"></path>
  </symbol>
</svg>